<?xml version="1.0" encoding="UTF-8" standalone="no"?>
<!-- Created with Inkscape (http://www.inkscape.org/) -->

<svg
   width="15.784641mm"
   height="10.26604mm"
   viewBox="0 0 15.784641 10.26604"
   version="1.1"
   id="svg1"
   sodipodi:docname="wrkinspace-logo.svg"
   xmlns:inkscape="http://www.inkscape.org/namespaces/inkscape"
   xmlns:sodipodi="http://sodipodi.sourceforge.net/DTD/sodipodi-0.dtd"
   xmlns="http://www.w3.org/2000/svg"
   xmlns:svg="http://www.w3.org/2000/svg">
  <sodipodi:namedview
     id="namedview1"
     pagecolor="#ffffff"
     bordercolor="#000000"
     borderopacity="0.25"
     inkscape:showpageshadow="2"
     inkscape:pageopacity="0.0"
     inkscape:pagecheckerboard="0"
     inkscape:deskcolor="#d1d1d1"
     inkscape:document-units="mm"
     showgrid="false" />
  <defs
     id="defs1">
    <rect
       x="-50.22427"
       y="48.314602"
       width="166.33209"
       height="78.678322"
       id="rect10" />
  </defs>
  <g
     inkscape:label="Layer 1"
     inkscape:groupmode="layer"
     id="layer1"
     transform="translate(-67.4417,-80.780766)">
    <path
       id="text10"
       style="font-style:normal;font-variant:normal;font-weight:normal;font-stretch:normal;font-size:53.3333px;font-family:Inter;-inkscape-font-specification:Inter;text-align:center;letter-spacing:0.01px;word-spacing:0px;text-anchor:middle;white-space:pre;shape-inside:url(#rect10);fill:#000000;fill-opacity:1;stroke:none;stroke-width:2.45669;stroke-linecap:round;stroke-opacity:1;paint-order:stroke markers fill"
       d="m 6.5996095,58.88086 7.5996095,28.300782 c 2.148472,0.01424 4.598843,-0.253774 7.226563,-0.736328 -0.222561,-1.167493 -0.444435,-2.334461 -0.685547,-3.501954 -0.329861,-1.597219 -0.676433,-3.195749 -1.041016,-4.792968 L 15.142578,58.88086 Z m 22.2656255,0 -4.816407,19.269532 c -0.381943,1.597219 -0.746528,3.195749 -1.09375,4.792968 -0.2422,1.114121 -0.475231,2.227677 -0.708984,3.341797 2.291258,-0.454333 4.697272,-1.060561 7.166016,-1.808593 l 2.058594,-7.966797 c 0.416666,-1.545137 0.815321,-3.263892 1.197265,-5.15625 0.07766,-0.384742 0.191995,-0.892757 0.275391,-1.296875 0.08942,0.428871 0.189303,0.889704 0.271484,1.296875 0.399305,1.892358 0.789931,3.611113 1.171875,5.15625 l 1.498047,5.746093 c 2.11349,-0.804193 4.211477,-1.68 6.263672,-2.615234 -0.115394,-0.496593 -0.221093,-0.993642 -0.339844,-1.490234 L 37.042969,58.88086 Z m 21.849609,0 -4.439453,18.773438 c 3.520547,-1.803458 6.770151,-3.746767 9.496094,-5.72461 L 59.283204,58.88086 Z m 2.933594,21.958088 c -2.920553,2.121389 -5.946599,3.274983 -9,4.806659 -0.165765,0.823648 -0.334945,1.265121 -0.496094,2.088769 -0.03337,0.180608 -0.06624,0.364092 -0.09961,0.544922 -0.03709,-0.180873 -0.07207,-0.364271 -0.109375,-0.544922 -0.131528,-0.636871 -0.278967,-0.891351 -0.416016,-1.528222 -2.0166,0.964288 -4.039301,1.737041 -6.050781,2.465496 l 2.431641,9.009992 h 8.93164 z m -25.9375,10.227459 c -4.421831,0.856665 -8.57931,2.004227 -12.199219,1.845246 l 1.505859,4.769989 h 8.984375 z"
       transform="matrix(0.26458333,0,0,0.26458333,66.190141,65.201872)"
       sodipodi:nodetypes="cccscccccscccscccccccccccccccccscccccccccc" />
    <path
       id="path11"
       style="fill:none;fill-opacity:1;stroke:#000000;stroke-width:0.556;stroke-linecap:butt;stroke-linejoin:round;stroke-dasharray:none;stroke-opacity:1;paint-order:stroke markers fill"
       d="m 81.875489,82.87257 c 2.648406,0.599963 -0.04791,2.3655 -3.286713,3.806425 -2.974598,1.323381 -6.420165,2.43277 -8.825611,2.382539 -2.405447,-0.05023 -2.632457,-1.724605 -0.974291,-2.464793"
       sodipodi:nodetypes="cssc" />
  </g>
</svg>
